<svg width="128" height="32" viewBox="0 0 128 32" fill="none" xmlns="http://www.w3.org/2000/svg">
<rect width="128" height="32" fill="white"/>
<path fill-rule="evenodd" clip-rule="evenodd" d="M19.7815 3C18.6167 3 17.4771 3.3078 16.5021 3.88575V3.88792L3.5426 11.5696C3.35941 11.6787 3.21257 11.8312 3.11793 12.0104C3.0233 12.1897 2.98446 12.389 3.00562 12.5869C3.00083 12.6238 3.00083 12.6608 3.00083 12.6955V21.3901C3.00083 21.6784 3.12711 21.9548 3.35189 22.1586C3.57668 22.3625 3.88155 22.477 4.19945 22.477C4.51734 22.477 4.82222 22.3625 5.047 22.1586C5.27179 21.9548 5.39807 21.6784 5.39807 21.3901V14.5279L16.423 21.2901C17.4148 21.899 18.585 22.2243 19.7827 22.2243C20.9805 22.2243 22.1507 21.899 23.1425 21.2901L36.0349 13.3781C36.1988 13.2778 36.3328 13.1424 36.4249 12.9838C36.5171 12.8253 36.5646 12.6485 36.5632 12.4692C36.5617 12.29 36.5115 12.1139 36.4168 11.9565C36.3221 11.7992 36.186 11.6655 36.0205 11.5674L23.061 3.88575C22.086 3.3078 20.9464 3 19.7815 3ZM7.79535 18.6208V23.5637C7.79595 23.8226 7.89789 24.073 8.08301 24.2701C8.08301 24.2701 8.08062 24.268 8.99397 23.5659L8.08301 24.2723L8.08781 24.2767L8.10219 24.2919L8.15014 24.3397C8.39641 24.5842 8.65394 24.8191 8.92205 25.044C9.63636 25.6386 10.4055 26.1767 11.221 26.6525C13.2131 27.8175 16.133 29 19.784 29C23.4302 29 26.3524 27.8175 28.3421 26.6525C29.3394 26.0677 30.1113 25.4852 30.6387 25.044C30.9076 24.8191 31.1659 24.5842 31.413 24.3397L31.461 24.2919L31.4753 24.2767L31.4801 24.2723L31.4825 24.268C31.6668 24.0714 31.7679 23.8217 31.7678 23.5637V18.6208L24.485 23.092C23.0965 23.9443 21.4583 24.3998 19.7816 24.3998C18.1049 24.3998 16.4667 23.9443 15.0782 23.092L7.79535 18.6208Z" fill="url(#paint0_angular)"/>
<path d="M53.4013 11.8182H51.2585V18.2216H51.169L46.7741 11.8182H44.8849V22H47.0376V15.5916H47.1122L51.5419 22H53.4013V11.8182ZM61.4689 11.8182V18.2464C61.4689 19.4098 60.6536 20.25 59.4007 20.25C58.1529 20.25 57.3326 19.4098 57.3326 18.2464V11.8182H55.1799V18.4304C55.1799 20.6577 56.8603 22.1442 59.4007 22.1442C61.9313 22.1442 63.6216 20.6577 63.6216 18.4304V11.8182H61.4689ZM70.9162 14.7464H72.9794C72.9496 12.9318 71.4581 11.679 69.1911 11.679C66.9588 11.679 65.3232 12.9119 65.3331 14.7614C65.3281 16.2628 66.3871 17.1229 68.1072 17.5355L69.2159 17.8139C70.3246 18.0824 70.9411 18.4006 70.946 19.0866C70.9411 19.8324 70.2351 20.3395 69.1413 20.3395C68.0227 20.3395 67.2173 19.8224 67.1477 18.8033H65.0646C65.1193 21.0057 66.6953 22.1442 69.1662 22.1442C71.652 22.1442 73.1136 20.956 73.1186 19.0916C73.1136 17.3963 71.8359 16.4964 70.0661 16.0987L69.1513 15.88C68.2663 15.6761 67.5256 15.348 67.5405 14.6172C67.5405 13.9609 68.1222 13.4787 69.1761 13.4787C70.2053 13.4787 70.8366 13.946 70.9162 14.7464ZM74.5666 22H76.7193V17.794H80.8606V16.0192H76.7193V13.593H81.3081V11.8182H74.5666V22ZM82.5932 22H84.7111V17.6797C84.7111 16.7401 85.3972 16.0938 86.3319 16.0938C86.6252 16.0938 87.0279 16.1435 87.2267 16.2081V14.3288C87.0378 14.2841 86.7743 14.2543 86.5605 14.2543C85.7054 14.2543 85.0044 14.7514 84.726 15.696H84.6465V14.3636H82.5932V22ZM88.3217 22H90.4396V14.3636H88.3217V22ZM89.3857 13.3793C90.017 13.3793 90.5341 12.897 90.5341 12.3054C90.5341 11.7188 90.017 11.2365 89.3857 11.2365C88.7592 11.2365 88.2422 11.7188 88.2422 12.3054C88.2422 12.897 88.7592 13.3793 89.3857 13.3793ZM95.6163 22.1491C97.5055 22.1491 98.7782 21.2294 99.0765 19.8125L97.1177 19.6832C96.9039 20.2649 96.3571 20.5682 95.6511 20.5682C94.5922 20.5682 93.921 19.8672 93.921 18.7287V18.7237H99.1213V18.142C99.1213 15.5469 97.5502 14.2642 95.5318 14.2642C93.2846 14.2642 91.8279 15.8601 91.8279 18.2166C91.8279 20.6378 93.2647 22.1491 95.6163 22.1491ZM93.921 17.4112C93.9657 16.5412 94.627 15.8452 95.5666 15.8452C96.4863 15.8452 97.1227 16.5014 97.1277 17.4112H93.921ZM102.621 17.5852C102.626 16.6009 103.213 16.0241 104.068 16.0241C104.918 16.0241 105.43 16.581 105.425 17.5156V22H107.543V17.1378C107.543 15.358 106.499 14.2642 104.908 14.2642C103.775 14.2642 102.954 14.821 102.611 15.7109H102.522V14.3636H100.503V22H102.621V17.5852ZM112.026 22.1243C113.259 22.1243 113.901 21.4134 114.194 20.777H114.283V22H116.371V11.8182H114.259V15.6463H114.194C113.911 15.0249 113.299 14.2642 112.021 14.2642C110.346 14.2642 108.929 15.5668 108.929 18.1918C108.929 20.7472 110.286 22.1243 112.026 22.1243ZM112.697 20.4389C111.658 20.4389 111.092 19.5142 111.092 18.1818C111.092 16.8594 111.648 15.9496 112.697 15.9496C113.727 15.9496 114.303 16.8196 114.303 18.1818C114.303 19.544 113.717 20.4389 112.697 20.4389ZM124.466 16.5412C124.278 15.1342 123.144 14.2642 121.215 14.2642C119.261 14.2642 117.974 15.169 117.979 16.6406C117.974 17.7841 118.694 18.5249 120.186 18.8232L121.508 19.0866C122.175 19.2209 122.478 19.4645 122.488 19.8473C122.478 20.2997 121.986 20.6229 121.245 20.6229C120.489 20.6229 119.987 20.2997 119.858 19.6783L117.775 19.7876C117.974 21.2493 119.216 22.1491 121.24 22.1491C123.219 22.1491 124.635 21.1399 124.64 19.6335C124.635 18.5298 123.915 17.8686 122.433 17.5653L121.051 17.2869C120.34 17.1328 120.077 16.8892 120.081 16.5213C120.077 16.0639 120.594 15.7656 121.25 15.7656C121.986 15.7656 122.423 16.1683 122.528 16.6605L124.466 16.5412Z" fill="url(#paint1_angular)"/>
<defs>
<radialGradient id="paint0_angular" cx="0" cy="0" r="1" gradientUnits="userSpaceOnUse" gradientTransform="translate(29.8338 -38.3658) rotate(90) scale(95.4346 28.3123)">
<stop offset="0.171875" stop-color="#CF3A3A" stop-opacity="0.828125"/>
<stop offset="0.829893" stop-color="#C4C4C4" stop-opacity="0"/>
<stop offset="0.897102" stop-color="#920E95" stop-opacity="0.828125"/>
</radialGradient>
<radialGradient id="paint1_angular" cx="0" cy="0" r="1" gradientUnits="userSpaceOnUse" gradientTransform="translate(109.559 -19.0469) rotate(90) scale(62.3996 69.1711)">
<stop offset="0.171875" stop-color="#CF3A3A" stop-opacity="0.828125"/>
<stop offset="0.829893" stop-color="#C4C4C4" stop-opacity="0"/>
<stop offset="0.897102" stop-color="#920E95" stop-opacity="0.828125"/>
</radialGradient>
</defs>
</svg>
